<svg height="41" viewBox="0 0 88 88" width="37" xmlns="http://www.w3.org/2000/svg"><g id="Funnel"><path d="m50 16h-12a4 4 0 0 0 -4 4v8h20v-8a4 4 0 0 0 -4-4z" fill="#ff8080"/><path d="m30 16h-12a4 4 0 0 0 -4 4v8h20v-8a4 4 0 0 0 -4-4z" fill="#ff8080"/><path d="m70 16h-12a4 4 0 0 0 -4 4v8h20v-8a4 4 0 0 0 -4-4z" fill="#ff8080"/><path d="m47 13v4a3 3 0 0 1 -6 0v-4a4.95 4.95 0 0 0 2.49.97c.01 0 .01.01.02 0a3.9078 3.9078 0 0 0 .49.03l.51-.03a4.95 4.95 0 0 0 2.49-.97z" fill="#edc2be"/><rect fill="#ffe0d9" height="12" rx="5" width="10" x="39" y="2"/><path d="m67 13v4a3 3 0 0 1 -6 0v-4a4.95 4.95 0 0 0 2.49.97c.01 0 .01.01.02 0a3.9078 3.9078 0 0 0 .49.03l.51-.03a4.95 4.95 0 0 0 2.49-.97z" fill="#edc2be"/><rect fill="#ffe0d9" height="12" rx="5" width="10" x="59" y="2"/><path d="m21 13v4a3 3 0 0 0 6 0v-4a4.95 4.95 0 0 1 -2.49.97c-.01 0-.01.01-.02 0a3.9078 3.9078 0 0 1 -.49.03l-.51-.03a4.95 4.95 0 0 1 -2.49-.97z" fill="#edc2be"/><rect fill="#ffe0d9" height="12" rx="5" transform="matrix(-1 0 0 -1 48 16)" width="10" x="19" y="2"/><path d="m38 56-24-22h60l-24 22v8l-11.997 5.999z" fill="#bddeff"/><circle cx="66" cy="75" fill="#ffde76" r="11"/><circle cx="22" cy="75" fill="#ffde76" r="11"/><path d="m11 28h66v6h-66z" fill="#7aaeed"/><g fill="#2f2635"><path d="m50.4473 64.8945a1 1 0 0 0 .5527-.8945v-7.56l23.3892-21.44h2.6108a1 1 0 0 0 1-1v-6a1 1 0 0 0 -1-1h-2v-7a5.0059 5.0059 0 0 0 -5-5h-2v-1.54a5.98 5.98 0 0 0 2-4.46v-2a6 6 0 0 0 -12 0v2a5.98 5.98 0 0 0 2 4.46v1.54h-2a4.9813 4.9813 0 0 0 -4 2.0309 4.9813 4.9813 0 0 0 -4-2.0309h-2v-1.54a5.98 5.98 0 0 0 2-4.46v-2a6 6 0 0 0 -12 0v2a5.98 5.98 0 0 0 2 4.46v1.54h-2a4.9813 4.9813 0 0 0 -4 2.0309 4.9813 4.9813 0 0 0 -4-2.0309h-2v-1.54a5.98 5.98 0 0 0 2-4.46v-2a6 6 0 0 0 -12 0v2a5.98 5.98 0 0 0 2 4.46v1.54h-2a5.0059 5.0059 0 0 0 -5 5v7h-2a1 1 0 0 0 -1 1v6a1 1 0 0 0 1 1h2.6108l23.3892 21.44v13.56a1 1 0 0 0 1.4473.8945l2.5527-1.2763v4.3818h-7.0507a12 12 0 1 0 0 2h8.0507a1 1 0 0 0 1-1v-6.3818l2-1v7.3818a1 1 0 0 0 1 1h8.0515a12 12 0 1 0 0-2h-7.0515v-7.3818zm-28.4473 20.1055a10 10 0 1 1 10-10 10.0117 10.0117 0 0 1 -10 10zm44-20a10 10 0 1 1 -10 10 10.0117 10.0117 0 0 1 10-10zm-6-58a4 4 0 0 1 8 0v2a4 4 0 0 1 -8 0zm6 7.6563v2.3437a2 2 0 0 1 -4 0v-2.3486a6.2162 6.2162 0 0 0 2 .3486 6.3828 6.3828 0 0 0 2-.3437zm-11 5.3437a3.0033 3.0033 0 0 1 3-3h2a4 4 0 0 0 8 0h2a3.0033 3.0033 0 0 1 3 3v7h-3v-3a1 1 0 0 0 -2 0v3h-8v-3a1 1 0 0 0 -2 0v3h-3zm-15-13a4 4 0 0 1 8 0v2a4 4 0 0 1 -8 0zm6 7.6563v2.3437a2 2 0 0 1 -4 0v-2.3486a6.2162 6.2162 0 0 0 2 .3486 6.3625 6.3625 0 0 0 2-.3437zm-11 5.3437a3.0033 3.0033 0 0 1 3-3h2a4 4 0 0 0 8 0h2a3.0033 3.0033 0 0 1 3 3v7h-3v-3a1 1 0 0 0 -2 0v3h-8v-3a1 1 0 0 0 -2 0v3h-3zm-15-13a4 4 0 0 1 8 0v2a4 4 0 0 1 -8 0zm6 7.6563v2.3437a2 2 0 0 1 -4 0v-2.3457a6.08 6.08 0 0 0 2 .3457 6.1887 6.1887 0 0 0 2-.3437zm-11 5.3437a3.0033 3.0033 0 0 1 3-3h2a4 4 0 0 0 8 0h2a3.0033 3.0033 0 0 1 3 3v7h-3v-3a1 1 0 0 0 -2 0v3h-8v-3a1 1 0 0 0 -2 0v3h-3zm-3 13v-4h64v4zm27 35.3818v-12.3818a.9989.9989 0 0 0 -.3242-.7373l-22.1058-20.2627h54.86l-22.1058 20.2627a.9989.9989 0 0 0 -.3242.7373v7.3818z"/><path d="m23.6074 38.7373 11.1016 10.1768a1 1 0 1 0 1.3515-1.4741l-11.1015-10.1773a1 1 0 0 0 -1.3516 1.4746z"/><path d="m63 77.0469a1.0414 1.0414 0 0 0 -1 1.0478 3.9049 3.9049 0 0 0 3 3.7887v1.1166a1 1 0 0 0 2 0v-1.1166a3.8985 3.8985 0 0 0 .3291-7.4938l-.3291-.1096v-4.0376a1.9764 1.9764 0 0 1 1 1.7576.9605.9605 0 0 0 1 .9531 1.0414 1.0414 0 0 0 1-1.0478 3.9049 3.9049 0 0 0 -3-3.7887v-1.1166a1 1 0 0 0 -2 0v1.1166a3.8985 3.8985 0 0 0 -.3291 7.4938l.3291.1096v4.04a1.8986 1.8986 0 0 1 -1-1.666v-.094a.9605.9605 0 0 0 -1-.9531zm5 1.0478a1.8987 1.8987 0 0 1 -1 1.6661v-3.3168a1.8863 1.8863 0 0 1 1 1.6507zm-4-6.1894a1.8989 1.8989 0 0 1 1-1.6661v3.3168a1.8863 1.8863 0 0 1 -1-1.6507z"/><path d="m24 72a.9605.9605 0 0 0 1 .9531 1.0414 1.0414 0 0 0 1-1.0478 3.9049 3.9049 0 0 0 -3-3.7887v-1.1166a1 1 0 0 0 -2 0v1.1166a3.8985 3.8985 0 0 0 -.3291 7.4938l.3291.1096v4.04a1.8986 1.8986 0 0 1 -1-1.666v-.094a.9605.9605 0 0 0 -1-.9531 1.0414 1.0414 0 0 0 -1 1.0478 3.9049 3.9049 0 0 0 3 3.7887v1.1166a1 1 0 0 0 2 0v-1.1166a3.8985 3.8985 0 0 0 .3291-7.4938l-.3291-.1096v-4.0376a1.9764 1.9764 0 0 1 1 1.7576zm-4-.0947a1.8989 1.8989 0 0 1 1-1.6661v3.3168a1.8863 1.8863 0 0 1 -1-1.6507zm4 6.1894a1.8987 1.8987 0 0 1 -1 1.6661v-3.3168a1.8863 1.8863 0 0 1 1 1.6507z"/><path d="m86 73h-5a1 1 0 0 0 0 2h5a1 1 0 0 0 0-2z"/><path d="m81.5547 69.832 3-2a1 1 0 1 0 -1.1094-1.664l-3 2a1 1 0 0 0 1.1094 1.664z"/><path d="m81.5547 78.168a1 1 0 0 0 -1.1094 1.664l3 2a1 1 0 1 0 1.1094-1.664z"/><path d="m7 73h-5a1 1 0 0 0 0 2h5a1 1 0 0 0 0-2z"/><path d="m6.4453 69.832a1 1 0 1 0 1.1094-1.664l-3-2a1 1 0 1 0 -1.1094 1.664z"/><path d="m6.4453 78.168-3 2a1 1 0 1 0 1.1094 1.664l3-2a1 1 0 1 0 -1.1094-1.664z"/></g></g></svg>