<svg height="41" viewBox="0 0 512 512" width="37" xmlns="http://www.w3.org/2000/svg"><g fill-rule="evenodd"><path d="m232.078125 166.054688-21.113281-21.113282 99.171875-28.660156-28.660157 99.167969-21.113281-21.109375-30.21875 30.21875-28.285156-28.285156zm-137.078125 123.9375h322c11 0 20-9 20-20v-219.992188h-202c0 22-18 40-40 40h-120v179.992188c0 10.992187 9 20 20 20zm0 0" fill="#fbf7f6"/><path d="m210.96875 144.941406 21.109375 21.113282-30.21875 30.21875 28.285156 28.285156 30.21875-30.21875 21.113281 21.109375 28.664063-99.167969zm0 0" fill="#8481e2"/><path d="m130 422c0-11-9-20-20-20h-80c-11 0-20 9-20 20v20h120zm0 0" fill="#ffc234"/><path d="m130 442h-120v40c0 11 9 20 20 20h80c11 0 20-9 20-20zm0 0" fill="#fbf7f6"/><path d="m196 422v20h120v-20c0-11-9-20-20-20h-80c-11 0-20 9-20 20zm0 0" fill="#ffc234"/><path d="m316 442h-120v40c0 11 9 20 20 20h80c11 0 20-9 20-20zm0 0" fill="#fbf7f6"/><path d="m382 422v20h120v-20c0-11-9-20-20-20h-80c-11 0-20 9-20 20zm0 0" fill="#ffc234"/><path d="m502 442h-120v40c0 11 9 20 20 20h80c11 0 20-9 20-20zm0 0" fill="#fbf7f6"/><path d="m256 10h-161c-10.992188 0-20 9.007812-20 20v60h120c22 0 40-18 40-40h201.996094v-20c0-11-9.007813-20-20-20zm0 0" fill="#ffc234"/></g><path d="m155.003906 60c5.523438 0 10-4.476562 10-10s-4.476562-10-10-10h-.007812c-5.523438 0-9.996094 4.476562-9.996094 10s4.484375 10 10.003906 10zm0 0"/><path d="m195.007812 60c5.519532 0 10-4.476562 10-10s-4.480468-10-10-10h-.007812c-5.523438 0-9.996094 4.476562-9.996094 10s4.480469 10 10.003906 10zm0 0"/><path d="m114.996094 40c-5.523438 0-9.996094 4.476562-9.996094 10s4.480469 10 10.003906 10c5.523438 0 10-4.476562 10-10s-4.476562-10-10-10zm0 0"/><path d="m482 392h-30v-46.003906c0-5.519532-4.480469-10-10-10h-20c-5.523438 0-10 4.480468-10 10 0 5.523437 4.476562 10 10 10h10v36.003906h-30c-16.542969 0-30 13.457031-30 30v60c0 16.542969 13.457031 30 30 30h80c16.542969 0 30-13.457031 30-30v-60c0-16.542969-13.457031-30-30-30zm-80 20h80c5.511719 0 10 4.488281 10 10v10.003906h-100v-10.003906c0-5.511719 4.488281-10 10-10zm80 80h-80c-5.515625 0-10-4.484375-10-10v-29.996094h100v29.996094c0 5.515625-4.488281 10-10 10zm0 0"/><path d="m332 335.996094h-66v-36.003906h150.996094c16.542968 0 30-13.457032 30-30v-239.992188c0-16.542969-13.457032-30-30-30h-216.996094c-5.523438 0-10 4.476562-10 10s4.476562 10 10 10h216.996094c5.515625 0 10 4.484375 10 10v10h-191.996094c-5.523438 0-10 4.476562-10 10 0 16.542969-13.457031 30-30 30h-110v-50c0-5.515625 4.488281-10 10-10h15c5.523438 0 10-4.476562 10-10s-4.476562-10-10-10h-15c-16.539062 0-30 13.457031-30 30v239.992188c0 16.542968 13.460938 30 30 30h151v36.003906h-176c-5.523438 0-10 4.480468-10 10v46.003906h-30c-16.542969 0-30 13.457031-30 30v60c0 16.542969 13.457031 30 30 30h80c16.542969 0 30-13.457031 30-30v-60c0-16.542969-13.457031-30-30-30h-30v-36.003906h166v36.003906h-30c-16.542969 0-30 13.457031-30 30v60c0 16.542969 13.457031 30 30 30h80c16.542969 0 30-13.457031 30-30v-60c0-16.542969-13.457031-30-30-30h-30v-36.003906h66c5.519531 0 10-4.476563 10-10 0-5.519532-4.476562-10-10-10zm-247-66.003906v-169.992188h110c24.144531 0 44.351562-17.207031 48.996094-40h183v209.992188c0 5.515624-4.484375 10-10 10h-321.996094c-5.511719 0-10-4.484376-10-10zm25 222.007812h-80c-5.515625 0-10-4.484375-10-10v-29.996094h100v29.996094c0 5.515625-4.488281 10-10 10zm10-70v10.003906h-100v-10.003906c0-5.511719 4.484375-10 10-10h80c5.511719 0 10 4.488281 10 10zm176 70h-80c-5.515625 0-10-4.484375-10-10v-29.996094h100v29.996094c0 5.515625-4.484375 10-10 10zm10-70v10.003906h-100v-10.003906c0-5.511719 4.484375-10 10-10h80c5.515625 0 10 4.488281 10 10zm0 0"/><path d="m274.40625 222.523438c2.5 2.5 6.140625 3.492187 9.566406 2.613281 3.425782-.882813 6.128906-3.511719 7.109375-6.910157l28.664063-99.171874c1.011718-3.5.039062-7.269532-2.535156-9.847657-2.578126-2.574219-6.347657-3.546875-9.847657-2.535156l-99.175781 28.664063c-3.394531.980468-6.023438 3.683593-6.90625 7.113281-.882812 3.425781.113281 7.0625 2.613281 9.5625l14.042969 14.042969-23.148438 23.144531c-3.90625 3.90625-3.90625 10.238281 0 14.144531l28.285157 28.285156c1.953125 1.949219 4.511719 2.925782 7.070312 2.925782 2.558594 0 5.117188-.976563 7.070313-2.925782l23.148437-23.148437zm-44.261719-12.109376-14.140625-14.140624 23.148438-23.148438c3.902344-3.902344 3.902344-10.234375 0-14.140625l-9.140625-9.140625 65.484375-18.925781-18.925782 65.484375-9.136718-9.136719c-3.90625-3.902344-10.234375-3.902344-14.144532 0zm0 0"/><path d="m155.003906 20c5.523438 0 10-4.476562 10-10s-4.476562-10-10-10h-.007812c-5.523438 0-9.996094 4.476562-9.996094 10s4.484375 10 10.003906 10zm0 0"/><path d="m387.003906 345.996094c0-5.519532-4.480468-10-10-10h-.007812c-5.523438 0-9.996094 4.480468-9.996094 10 0 5.523437 4.480469 10 10.003906 10 5.523438 0 10-4.476563 10-10zm0 0"/></svg>