<svg id="Layer_1" enable-background="new 0 0 512 512" height="41" viewBox="0 0 512 512" width="37" xmlns="http://www.w3.org/2000/svg"><g><g><path d="m478.995 332.313h-445.99v-266.785c0-11.046 8.954-20 20-20h405.989c11.046 0 20 8.954 20 20v266.785z" fill="#f9f6f6"/><path d="m33.005 314.313h445.989v18h-445.989z" fill="#ecdaec"/><path d="m494 332.313h-476c-5.523 0-10 4.477-10 10v17.528c0 5.523 4.477 10 10 10h476c5.523 0 10-4.477 10-10v-17.528c0-5.523-4.477-10-10-10z" fill="#ffba57"/><path d="m494 332.313h-476c-5.523 0-10 4.477-10 10v17.528c0 5.523 4.477 10 10 10h476c5.523 0 10-4.477 10-10v-17.528c0-5.523-4.477-10-10-10z" fill="#ffba57"/><path d="m494 351.841h-476c-5.443 0-9.862-4.352-9.988-9.764-.002.079-.012.156-.012.236v17.528c0 5.523 4.477 10 10 10h476c5.523 0 10-4.477 10-10v-17.528c0-.08-.01-.157-.012-.236-.126 5.413-4.545 9.764-9.988 9.764z" fill="#ffac3e"/><path d="m286.75 8h-61.5c-5.523 0-10 4.477-10 10v27.528h81.5v-27.528c0-5.523-4.477-10-10-10z" fill="#e8834d"/><path d="m215.25 27.528h81.5v18h-81.5z" fill="#d66e41"/><path d="m164.66 504h-44.992l27-134.159h44.992z" fill="#e8834d"/><path d="m143.045 387.841h44.992l3.623-18h-44.992z" fill="#d66e41"/><path d="m347.804 504h44.992l-27-134.159h-44.992z" fill="#e8834d"/><path d="m365.796 369.841h-44.992l3.622 18h44.992z" fill="#d66e41"/><path d="m180.542 425.097h151.38l6.45 32.032h-164.28z" fill="#ffba57"/><path d="m177.716 439.129-3.624 18h164.28l-3.625-18z" fill="#ffac3e"/><g><circle cx="153.601" cy="147.214" fill="#98db7c" r="48.465"/></g><path d="m153.601 177.678c-23.69 0-43.397-17.001-47.617-39.465-.548 2.918-.848 5.923-.848 9 0 26.767 21.698 48.465 48.465 48.465 26.766 0 48.465-21.698 48.465-48.465 0-3.077-.299-6.082-.848-9-4.22 22.464-23.927 39.465-47.617 39.465z" fill="#82d361"/><ellipse cx="272.469" cy="260.836" fill="#ff4755" rx="24.282" ry="24.281" transform="matrix(.16 -.987 .987 .16 -28.644 488.005)"/><path d="m272.469 267.118c-10.229 0-18.975-6.329-22.551-15.281-1.112 2.784-1.73 5.819-1.73 9 0 13.41 10.871 24.281 24.281 24.281s24.281-10.871 24.281-24.281c0-3.181-.618-6.216-1.73-9-3.576 8.952-12.322 15.281-22.551 15.281z" fill="#fc2b3a"/></g><g><path d="m494.466 324.948h-7.521v-259.792c0-15.193-12.361-27.554-27.554-27.554h-155.047v-20.068c0-9.668-7.866-17.534-17.534-17.534h-61.62c-9.668 0-17.534 7.866-17.534 17.534v20.068h-53.011c-4.151 0-7.515 3.364-7.515 7.515s3.364 7.515 7.515 7.515h304.747c6.906 0 12.525 5.618 12.525 12.525v259.792h-118.354c-4.151 0-7.515 3.364-7.515 7.515s3.364 7.515 7.515 7.515h140.903c1.382 0 2.505 1.123 2.505 2.505v17.563c0 1.382-1.123 2.505-2.505 2.505h-400.859c-4.151 0-7.515 3.364-7.515 7.515s3.364 7.515 7.515 7.515h43.67l-25.242 125.424c-.444 2.208.125 4.5 1.553 6.243 1.427 1.744 3.561 2.754 5.814 2.754h45.08c3.578 0 6.661-2.523 7.367-6.032l8.238-40.931h152.293l8.237 40.931c.707 3.509 3.789 6.032 7.367 6.032h45.08c2.253 0 4.388-1.011 5.814-2.754 1.428-1.743 1.997-4.034 1.553-6.243l-25.242-125.424h119.277c9.668 0 17.534-7.866 17.534-17.534v-17.563c0-9.671-7.866-17.537-17.534-17.537zm-271.781-307.414c0-1.382 1.123-2.505 2.505-2.505h61.62c1.382 0 2.505 1.123 2.505 2.505v20.068h-66.63zm92.093 360.045 8.118 40.335h-133.326l8.118-40.335zm-156.449 119.392h-29.749l24.028-119.391h29.75zm24.782-46.963 3.434-17.065h139.375l3.434 17.065zm200.774 46.963h-29.75l-24.028-119.391h29.75z"/><path d="m63.548 362.55h-46.014c-1.382 0-2.505-1.123-2.505-2.505v-17.563c0-1.382 1.123-2.505 2.505-2.505h305.97c4.151 0 7.515-3.364 7.515-7.515s-3.364-7.515-7.515-7.515h-283.421v-259.791c0-6.906 5.618-12.525 12.524-12.525h71.979c4.151 0 7.515-3.364 7.515-7.515s-3.364-7.515-7.515-7.515h-71.978c-15.193 0-27.554 12.361-27.554 27.554v259.792h-7.52c-9.668.001-17.534 7.867-17.534 17.535v17.563c0 9.668 7.866 17.534 17.534 17.534h46.014c4.151 0 7.515-3.364 7.515-7.515s-3.364-7.514-7.515-7.514z"/><path d="m181.28 127.788c-2.971-2.9-7.73-2.839-10.626.133l-24.399 25.019-10.247-9.964c-2.977-2.895-7.732-2.826-10.626.149-2.893 2.975-2.827 7.733.149 10.626l15.626 15.196c1.46 1.42 3.35 2.127 5.238 2.127 1.955 0 3.908-.758 5.381-2.268l29.638-30.391c2.897-2.973 2.837-7.73-.134-10.627z"/><path d="m209.475 147.001c0-30.92-25.155-56.074-56.074-56.074-30.92 0-56.074 25.155-56.074 56.074 0 30.92 25.155 56.074 56.074 56.074 30.92 0 56.074-25.154 56.074-56.074zm-56.074 41.045c-22.632 0-41.045-18.413-41.045-41.045s18.413-41.045 41.045-41.045 41.045 18.413 41.045 41.045-18.413 41.045-41.045 41.045z"/><path d="m175.533 238.713c-2.936-2.934-7.693-2.934-10.628 0l-11.504 11.504-11.504-11.504c-2.935-2.934-7.693-2.934-10.628 0-2.934 2.935-2.934 7.693 0 10.628l11.504 11.504-11.504 11.504c-2.934 2.935-2.934 7.693 0 10.628 1.468 1.467 3.391 2.201 5.314 2.201s3.846-.734 5.314-2.201l11.504-11.504 11.504 11.504c1.468 1.467 3.391 2.201 5.314 2.201s3.846-.734 5.314-2.201c2.934-2.935 2.934-7.693 0-10.628l-11.504-11.504 11.504-11.504c2.935-2.935 2.935-7.692 0-10.628z"/><path d="m404.716 238.713c-2.935-2.934-7.693-2.934-10.628 0l-11.504 11.504-11.504-11.504c-2.936-2.934-7.693-2.934-10.628 0-2.935 2.935-2.935 7.693 0 10.628l11.504 11.504-11.504 11.504c-2.935 2.935-2.935 7.693 0 10.628 1.468 1.467 3.391 2.201 5.314 2.201s3.846-.734 5.314-2.201l11.504-11.504 11.504 11.504c1.468 1.467 3.391 2.201 5.314 2.201s3.846-.734 5.314-2.201c2.935-2.935 2.935-7.693 0-10.628l-11.504-11.504 11.504-11.504c2.935-2.935 2.935-7.692 0-10.628z"/><path d="m250.369 170.496c1.468 1.467 3.391 2.201 5.314 2.201s3.846-.734 5.314-2.201l11.504-11.504 11.504 11.504c1.468 1.467 3.39 2.201 5.314 2.201 1.923 0 3.846-.734 5.314-2.201 2.934-2.935 2.934-7.693 0-10.628l-11.504-11.504 11.504-11.504c2.934-2.935 2.934-7.693 0-10.628-2.935-2.933-7.693-2.933-10.628 0l-11.504 11.504-11.504-11.504c-2.935-2.933-7.692-2.934-10.628 0-2.934 2.935-2.934 7.693 0 10.628l11.504 11.504-11.504 11.504c-2.935 2.935-2.935 7.693 0 10.628z"/><path d="m240.658 260.846c0 17.559 14.285 31.843 31.844 31.843s31.843-14.285 31.843-31.843-14.285-31.844-31.843-31.844-31.844 14.286-31.844 31.844zm48.657 0c0 9.271-7.543 16.814-16.814 16.814s-16.814-7.543-16.814-16.814 7.543-16.814 16.814-16.814 16.814 7.543 16.814 16.814z"/><path d="m224.455 204.064c-.74 4.084 1.971 7.994 6.055 8.734 1.228.222 14.197 2.485 32.237 2.485 24.722 0 58.967-4.252 85.55-23.833 21.674-15.966 34.539-39.382 38.239-69.599.505-4.119-2.427-7.868-6.546-8.372-4.108-.501-7.867 2.427-8.372 6.546-3.174 25.926-14.003 45.873-32.186 59.288-40.708 30.035-105.597 18.812-106.248 18.695-4.077-.733-7.989 1.973-8.729 6.056z"/></g></g></svg>