<?xml version="1.0" encoding="utf-8"?>
<!-- Generator: Adobe Illustrator 27.2.0, SVG Export Plug-In . SVG Version: 6.00 Build 0)  -->
<svg version="1.1" id="Layer_1" xmlns="http://www.w3.org/2000/svg" xmlns:xlink="http://www.w3.org/1999/xlink" x="0px" y="0px"
	 viewBox="0 0 213 5" style="enable-background:new 0 0 213 5;" xml:space="preserve">
<style type="text/css">
	.st0{fill:url(#SVGID_1_);}
</style>
<radialGradient id="SVGID_1_" cx="106.5" cy="3.5" r="75.3276" gradientTransform="matrix(1 0 0 -1 0 6)" gradientUnits="userSpaceOnUse">
	<stop  offset="0" style="stop-color:#FFE026"/>
	<stop  offset="1" style="stop-color:#FF7503"/>
</radialGradient>
<path class="st0" d="M210.2,4c0.7,0,1.7,0,2.4,0c-1.1,0-2.2,0-3,0c-0.4,0.1,0.7,0.1,1.1,0.1c0.9,0,1.7,0,2.4,0.1c-0.7,0-1.5,0-2.4,0
	c-0.9,0-2,0-2.6,0c0.7,0,0.7,0,0.7,0.1c-1.5,0-1.5,0.2-3.9,0.2c-0.9,0-1.7,0-2.6,0c-1.1,0.1-2.4,0.3-5.2,0.2c-0.9,0-1.7,0-2.6,0
	c-2.4,0.1-4.8,0-7.2,0.1c-0.2,0-0.4,0-0.7,0c-0.9,0-1.7,0-2.6,0h-0.2h-0.2c-0.9,0-1.5,0-2.4,0c-3,0-6.3,0-9.4,0c-2,0-3.5,0-4.6-0.1
	h-0.2h-0.2C166,4.9,166.2,5,164.1,5c-2.2,0-4.4,0-6.7,0c-1.5,0-3,0-4.6,0c-5.4,0-10.9,0-16.3-0.1c-4.8,0-9.6,0-14.4-0.1
	c-1.7,0.1-3.5,0-5,0c-8.7,0-17.6,0-26.3-0.1c-3.9,0-7.8,0-11.7-0.1c-3.5,0-6.7,0-10.2-0.1c-8-0.1-16.1-0.1-23.9-0.3
	c-3.3,0-6.3,0-9.1-0.1c-4.6,0-8.9-0.1-13.1-0.2c-0.7,0-1.1,0-1.5,0c-1.7,0-3,0-4.6-0.1c-1.1,0-2,0-2.6-0.1c-0.7,0-1.3,0-2-0.1
	c-0.7-0.1-1.7-0.1-2.8-0.1C7.4,3.5,5.2,3.5,4.8,3.3c-3.3,0-4.1-0.2-3.9-0.3c-1.3-0.2-1.1-0.4,0-0.6c0-0.1,0-0.2,0-0.3v0
	c-0.4-0.2,2-0.5,1.3-0.7C2,1.1,3.3,1,4.2,0.8c0,0,0-0.1,0.9-0.1c0.2,0,0.9-0.1,1.7-0.1c1.1-0.1,2.4-0.2,4.6-0.3c0.4-0.1,1.3,0,2,0
	c0.7,0,1.3-0.1,2-0.1c0.7,0,1.3,0,2,0c2.6-0.1,5.2-0.1,8-0.1c1.1,0,2,0,3,0c0.4,0,1.1,0,1.5,0c5.9,0,12,0,17.8,0c3,0,6.1,0,9.1,0.1
	c2.6,0,5.7-0.1,8.5,0c0.7,0,1.3,0,1.7,0c2,0,3.7,0,5.7,0c4.8,0,9.6,0,14.1,0.1c1.5,0,3.3,0,4.6,0c0.9,0,1.7,0,2.6,0
	c2.8,0,5.7,0,8.5,0c0.4,0,0.9,0,1.3,0c1.1,0,2.4,0,3.5,0c1.5,0,3.3,0,4.8,0c1.3,0,2.8,0,3.9,0c0.9,0,1.7,0,2.6,0c1.7,0,3.7,0,5.4,0
	c3.3,0,6.5,0,9.6,0c5.2,0,10.4,0.1,15.7,0.1c1.7,0,3.3,0,5,0c-1.5,0-3.3,0-4.8,0c1.5,0,3.3,0,4.8,0c2.8,0,5.4,0,8,0.1
	c1.1,0,2.2,0,3.3,0c0.2,0,0.4,0,0.7,0c2.4,0,4.8,0,7.2,0.1c2.2,0,4.1,0.1,6.1,0.1c1.1,0,2.2,0,3.3,0.1c2,0,3.7,0.1,4.4,0.2
	c1.3-0.1,2.2,0,3.3,0c1.1,0.1,0.7,0.2,2,0.2c-0.7,0-1.3,0-2,0c0.2,0,0.4,0.1,0.7,0.1c1.5,0.1,3,0.1,4.6,0.1c0.2,0,0.4,0,0.7,0
	c1.5,0,3.3,0,4.6,0h0.2c0,0,0,0-0.2,0c-0.9,0-1.7,0-2.4,0h-0.2c1.1,0,2,0,2.6,0c0.4,0.1-0.9,0.2-1.3,0.2c0.2,0-0.9,0.1,0,0.1
	c0.7,0,1.7,0,1.5,0c-0.2,0.1-1.5,0-2.2,0c-0.2,0-0.4,0-0.7,0c1.7,0.1,3.5,0.1,5.2,0.2c2.6,0,3.7,0.1,5.2,0.2c0.4,0,1.1,0,1.3,0
	c-1.3,0-0.7,0.1-1.5,0.1c-3,0.1-3,0.2-0.2,0.3c0.9,0,2.6,0.1,3,0.2c0,0,0,0.1,0,0.1c0.4,0,0.9,0,0.9,0c-0.2,0.1-0.9,0-1.5,0
	c-0.4,0-1.1,0-1.3,0c0.4,0.1,0.2,0.1-1.1,0.1c0.4,0.1,1.7,0,1.5,0.1c0.7,0,1.1,0,1.7,0c-0.7,0.1-2,0-2.2,0.1
	c0.7,0.1,0.7,0.1-0.4,0.1c-0.9,0-2,0-0.9,0.1C208.6,4,209.5,4,210.2,4z M6.1,1.9c-0.2,0-0.2,0-0.2,0C5.9,1.9,6.1,1.9,6.1,1.9z
	 M148.8,2.2c-0.2,0-0.4,0-0.7,0C148.4,2.2,148.6,2.2,148.8,2.2z M37.4,2.3C37.7,2.3,37.7,2.3,37.4,2.3C37.7,2.3,37.7,2.3,37.4,2.3z
	 M60.9,2.4c0.2,0,0.2,0,0.4,0C61.2,2.4,60.9,2.4,60.9,2.4z M88.1,2.9C88.1,2.9,87.9,2.9,88.1,2.9C87.9,2.9,87.9,2.9,88.1,2.9z
	 M69.9,2.5C69.9,2.5,69.9,2.5,69.9,2.5C69.9,2.5,69.9,2.5,69.9,2.5C69.9,2.5,69.9,2.5,69.9,2.5z M59.6,3.2c-0.2,0-0.2,0-0.4,0
	c0,0-0.2,0-0.2,0C59.2,3.2,59.4,3.2,59.6,3.2z M44,2.8C44.2,2.8,44.2,2.8,44,2.8C44.2,2.8,44.2,2.8,44,2.8C44,2.8,44.2,2.8,44,2.8z
	 M35.5,2.7C35.7,2.7,35.5,2.7,35.5,2.7C35.5,2.7,35.5,2.7,35.5,2.7C35.5,2.7,35.5,2.7,35.5,2.7z M70.7,3.5
	C70.9,3.5,70.9,3.5,70.7,3.5C70.9,3.5,70.9,3.5,70.7,3.5C70.9,3.5,70.9,3.5,70.7,3.5z M66.4,3.4c-0.2,0-0.2,0-0.7,0
	C65.9,3.4,66.2,3.4,66.4,3.4z M25,2.7C25,2.8,25,2.8,25,2.7C25,2.8,25,2.8,25,2.7C25,2.8,25,2.8,25,2.7z M160.1,2c0,0,0,0-0.2,0
	c0,0,0,0-0.2,0C159.9,2,159.9,2,160.1,2z M177.8,3.3c0,0,0.2,0,0.2-0.1C177.5,3.3,177.5,3.3,177.8,3.3z M126.9,3.8c0,0-0.2,0-0.2,0
	c0.2,0,0.7,0,0.9,0C127.3,3.8,127.1,3.8,126.9,3.8z M140.6,1.8C140.6,1.8,140.6,1.8,140.6,1.8C140.6,1.8,140.3,1.8,140.6,1.8
	C140.3,1.8,140.6,1.8,140.6,1.8z M143.6,3.9C143.8,3.9,143.8,3.9,143.6,3.9C143.8,3.9,143.8,3.9,143.6,3.9z M33.1,1.2
	C33.1,1.2,33.1,1.2,33.1,1.2C33.1,1.2,33.1,1.2,33.1,1.2z M173.6,2.3C173.8,2.3,173.8,2.3,173.6,2.3c0.2,0,0.4,0,0.4-0.1
	c-0.2,0-0.4,0-0.7,0C173.6,2.3,173.6,2.3,173.6,2.3z M184.5,1.8c-0.2,0-0.4,0-0.7,0C184.1,1.8,184.3,1.8,184.5,1.8z M171.2,1.7
	C171,1.7,171,1.7,171.2,1.7c0.4,0,0.9,0,1.3,0C172.1,1.7,171.7,1.7,171.2,1.7z M108.4,4.3c0,0,0,0-0.2,0.1c0.2,0,0.4,0,0.7,0
	C108.6,4.3,108.6,4.3,108.4,4.3z M152.7,1.1c0.2,0,0.2,0,0.4,0C153.2,1.1,153,1.1,152.7,1.1z M4.6,2.2C4.6,2.2,4.4,2.2,4.6,2.2
	L4.6,2.2z M49.2,0.4H49H49.2z M89,0.7C88.8,0.7,88.8,0.7,89,0.7C89,0.7,88.8,0.7,89,0.7z M98.8,0.5c0.2,0,0.2,0,0.4,0
	C99,0.5,99,0.5,98.8,0.5z M206,4.5c0.9-0.1,1.5,0,2.4,0C207.8,4.5,206.9,4.5,206,4.5z M65.1,0.1L65.1,0.1L65.1,0.1z M116.4,0.4
	c0.2,0,0.4,0,0.7,0C116.6,0.4,116.4,0.4,116.4,0.4z M194.3,2C194.3,2,194.3,2.1,194.3,2L194.3,2z"/>
</svg>
