<?xml version="1.0" encoding="utf-8"?>
<!-- Generator: Adobe Illustrator 27.2.0, SVG Export Plug-In . SVG Version: 6.00 Build 0)  -->
<svg version="1.1" id="Capa_1" xmlns="http://www.w3.org/2000/svg" xmlns:xlink="http://www.w3.org/1999/xlink" x="0px" y="0px"
	 viewBox="0 0 142 142" height="45" width="45" style="enable-background:new 0 0 142 142;" xml:space="preserve">
<style type="text/css">
	.st0{fill:#F44336;}
</style>
<g>
	<path class="st0" d="M58.8,8.1c-0.5-0.8-1.5-1.3-2.4-1.3H3.9C2.3,6.8,1,8.1,1,9.7v122.5c0,1.4,1,2.6,2.3,2.9c0.2,0,0.4,0.1,0.6,0.1
		c1.2,0,2.2-0.7,2.7-1.8L59.1,10.9C59.5,10,59.4,9,58.8,8.1z"/>
	<path class="st0" d="M73.7,52.4c-0.4-1.1-1.5-1.8-2.7-1.8l0,0c-1.2,0-2.2,0.7-2.7,1.8L45,107.8c-0.6,1.5,0.1,3.2,1.6,3.8
		c0.4,0.2,0.7,0.2,1.1,0.2H69l8,21.4c0.4,1.1,1.5,1.9,2.7,1.9h23.3c1.6,0,2.9-1.3,2.9-2.9c0-0.4-0.1-0.7-0.2-1.1L73.7,52.4z"/>
	<path class="st0" d="M138.1,6.8H85.6c-1.6,0-2.9,1.3-2.9,2.9c0,0.4,0.1,0.8,0.2,1.2l52.5,122.5c0.5,1.1,1.5,1.8,2.7,1.8
		c0.2,0,0.4,0,0.6-0.1c1.4-0.3,2.3-1.5,2.3-2.9V9.7C141,8.1,139.7,6.8,138.1,6.8z"/>
</g>
</svg>
