<?xml version="1.0" encoding="utf-8"?>
<!-- Generator: Adobe Illustrator 27.2.0, SVG Export Plug-In . SVG Version: 6.00 Build 0)  -->
<svg version="1.1" id="Capa_1" height="45" width="45"  xmlns="http://www.w3.org/2000/svg" xmlns:xlink="http://www.w3.org/1999/xlink" x="0px" y="0px"
	 viewBox="0 0 142 142" style="enable-background:new 0 0 142 142;" xml:space="preserve">
<style type="text/css">
	.st0{fill:#1976D2;}
	.st1{fill:#FAFAFA;}
</style>
<g>
	<path class="st0" d="M123.5,1h-105C8.8,1,1,8.8,1,18.5v105c0,9.7,7.8,17.5,17.5,17.5h105c9.7,0,17.5-7.8,17.5-17.5v-105
		C141,8.8,133.2,1,123.5,1z"/>
	<path class="st1" d="M119.1,71H97.2V53.5c0-4.8,3.9-4.4,8.8-4.4h8.8V27.2H97.2l0,0C82.8,27.2,71,39,71,53.5V71H53.5v21.9H71V141
		h26.2V92.9h13.1L119.1,71z"/>
</g>
</svg>
