<?xml version="1.0" encoding="utf-8"?>
<!-- Generator: Adobe Illustrator 27.2.0, SVG Export Plug-In . SVG Version: 6.00 Build 0)  -->
<svg version="1.1" id="Layer_1" height="45" width="45" xmlns="http://www.w3.org/2000/svg" xmlns:xlink="http://www.w3.org/1999/xlink" x="0px" y="0px"
	 viewBox="0 0 142 142" style="enable-background:new 0 0 142 142;" xml:space="preserve">
<style type="text/css">
	.st0{fill:#167EE6;}
	.st1{fill:#12B347;}
	.st2{fill:#0F993E;}
	.st3{fill:#FFD500;}
	.st4{fill:#FF4B26;}
	.st5{fill:#D93F21;}
</style>
<g>
	<path class="st0" d="M135.7,58.8l-57.1,0c-2.5,0-4.6,2-4.6,4.6v18.2c0,2.5,2,4.6,4.6,4.6h32.2c-3.5,9.1-10.1,16.8-18.5,21.7
		l13.7,23.7c22-12.7,35-35,35-60c0-3.6-0.3-6.1-0.8-9C139.8,60.4,137.9,58.8,135.7,58.8z"/>
	<path class="st1" d="M71,113.6c-15.7,0-29.5-8.6-36.9-21.3L10.4,106c12.1,20.9,34.7,35,60.6,35c12.7,0,24.7-3.4,35-9.4v0
		l-13.7-23.7C86,111.5,78.8,113.6,71,113.6z"/>
	<path class="st2" d="M106,131.6L106,131.6l-13.7-23.8c-6.3,3.6-13.5,5.8-21.3,5.8V141C83.7,141,95.7,137.6,106,131.6z"/>
	<path class="st3" d="M28.4,71c0-7.8,2.1-15,5.8-21.3L10.4,36C4.4,46.3,1,58.3,1,71s3.4,24.7,9.4,35l23.7-13.7
		C30.5,86,28.4,78.8,28.4,71z"/>
	<path class="st4" d="M71,28.4c10.3,0,19.7,3.6,27.1,9.7c1.8,1.5,4.5,1.4,6.1-0.3l12.9-12.9c1.9-1.9,1.8-5-0.3-6.7
		C104.5,7.5,88.4,1,71,1C45.1,1,22.5,15.1,10.4,36l23.7,13.7C41.5,37,55.3,28.4,71,28.4z"/>
	<path class="st5" d="M98.1,38.1c1.8,1.5,4.5,1.4,6.1-0.3l12.9-12.9c1.9-1.9,1.8-5-0.3-6.7C104.5,7.5,88.4,1,71,1v27.4
		C81.3,28.4,90.7,32,98.1,38.1z"/>
</g>
</svg>
