<?xml version="1.0" encoding="utf-8"?>
<!-- Generator: Adobe Illustrator 27.2.0, SVG Export Plug-In . SVG Version: 6.00 Build 0)  -->
<svg version="1.1" id="Layer_1" height="45" width="45" xmlns="http://www.w3.org/2000/svg" xmlns:xlink="http://www.w3.org/1999/xlink" x="0px" y="0px"
	 viewBox="0 0 142 142" style="enable-background:new 0 0 142 142;" xml:space="preserve">
<style type="text/css">
	.st0{fill:url(#SVGID_1_);}
	.st1{fill:#FFFFFF;}
</style>
<g>
	
		<linearGradient id="SVGID_1_" gradientUnits="userSpaceOnUse" x1="-62.6617" y1="1644.1106" x2="-59.7849" y2="1647.2029" gradientTransform="matrix(0 -42.2827 39.3387 0 -64667.5195 -2517.6426)">
		<stop  offset="0" style="stop-color:#FFDD55"/>
		<stop  offset="0.5" style="stop-color:#FF543E"/>
		<stop  offset="1" style="stop-color:#C837AB"/>
	</linearGradient>
	<path class="st0" d="M9.4,10.7c-11,11.4-8.7,23.5-8.7,60.3c0,30.5-5.3,61.1,22.6,68.4c8.7,2.2,85.9,2.2,94.6,0
		c11.6-3,21.1-12.4,22.3-28.8c0.2-2.3,0.2-76.7,0-79C138.7,13.9,128,3.9,113.8,1.8c-3.3-0.5-3.9-0.6-20.6-0.6
		C34,1.2,21-1.4,9.4,10.7L9.4,10.7z"/>
	<path class="st1" d="M70.4,19.4c-21.1,0-41.2-1.9-48.8,17.8c-3.2,8.1-2.7,18.7-2.7,33.8c0,13.3-0.4,25.7,2.7,33.8
		c7.6,19.7,27.9,17.8,48.8,17.8c20.2,0,41.1,2.1,48.8-17.8c3.2-8.2,2.7-18.6,2.7-33.8c0-20.1,1.1-33.1-8.7-42.9
		C103.4,18.2,90,19.4,70.4,19.4L70.4,19.4z M65.8,28.7c44.1-0.1,49.7-5,46.6,63.1c-1.1,24.1-19.4,21.4-41.9,21.4
		c-41.1,0-42.2-1.2-42.2-42.3C28.2,29.4,31.5,28.7,65.8,28.7L65.8,28.7z M98,37.3c-3.4,0-6.2,2.8-6.2,6.2c0,3.4,2.8,6.2,6.2,6.2
		c3.4,0,6.2-2.8,6.2-6.2C104.1,40.1,101.4,37.3,98,37.3z M70.4,44.5C55.8,44.5,44,56.4,44,71s11.8,26.5,26.5,26.5S96.9,85.6,96.9,71
		S85.1,44.5,70.4,44.5L70.4,44.5z M70.4,53.8c22.7,0,22.7,34.4,0,34.4C47.7,88.2,47.7,53.8,70.4,53.8z"/>
</g>
</svg>
