<?xml version="1.0" encoding="utf-8"?>
<!-- Generator: Adobe Illustrator 27.2.0, SVG Export Plug-In . SVG Version: 6.00 Build 0)  -->
<svg version="1.1" id="Layer_1" height="45" width="45" xmlns="http://www.w3.org/2000/svg" xmlns:xlink="http://www.w3.org/1999/xlink" x="0px" y="0px"
	 viewBox="0 0 142 142" style="enable-background:new 0 0 142 142;" xml:space="preserve">
<style type="text/css">
	.st0{fill:#CF2217;}
</style>
<path class="st0" d="M127.5,110.9c0,0-0.7,10-9.8,10c-7.1,0-11.9-5.4-16.4-12.4c12.8-11.2,21-27.9,21-46.6c0-33.7-26.5-61-59.2-61
	S4,28.3,4,62s26.5,61,59.2,61c5.9,0,11.7-0.9,17.1-2.6C87,131.2,95.7,141,109.3,141c27.6,0,28.8-30.1,28.8-30.1L127.5,110.9
	L127.5,110.9L127.5,110.9z M63.1,112.9c-19,0-34.5-22.8-34.5-50.9S44.1,11,63.1,11S97.6,33.9,97.6,62c0,11.2-2.4,21.5-6.6,29.9
	c-4.7-6.7-10.3-12.4-18.3-14.2c-14.2-3.2-26.5,3.2-30.4,6.4l3.7,7.5c0,0,3.7-2.1,12.9,0c5.8,1.3,10.3,9.3,15.4,18.5
	C70.8,112,67,112.9,63.1,112.9z"/>
</svg>
