<?xml version="1.0" encoding="utf-8"?>
<!-- Generator: Adobe Illustrator 27.2.0, SVG Export Plug-In . SVG Version: 6.00 Build 0)  -->
<svg version="1.1" id="Layer_1" height="45" width="45" xmlns="http://www.w3.org/2000/svg" xmlns:xlink="http://www.w3.org/1999/xlink" x="0px" y="0px"
	 viewBox="0 0 142 142" style="enable-background:new 0 0 142 142;" xml:space="preserve">
<style type="text/css">
	.st0{fill:#FF4500;}
	.st1{fill:#FFFFFF;}
</style>
<g>
	<path class="st0" d="M141,72.2c0-8.5-6.8-15.3-15.3-15.3c-4.1,0-7.9,1.6-10.6,4.3c-10.5-7.6-24.9-12.4-41-13l7-32.8l22.8,4.9
		c0.3,5.8,5,10.4,10.9,10.4c6.1,0,10.9-4.9,10.9-10.9s-4.9-10.9-10.9-10.9c-4.3,0-8,2.5-9.8,6.1L79.5,9.5c-0.7-0.1-1.4,0-2.1,0.4
		c-0.6,0.4-1,1-1.2,1.7c0,0-7.6,36.4-7.6,36.6c-16.4,0.4-31.1,5.3-41.7,13c-2.8-2.6-6.5-4.3-10.6-4.3C7.8,56.9,1,63.8,1,72.2
		c0,6.2,3.7,11.6,9.1,14c-0.2,1.5-0.4,3.1-0.4,4.6c0,23.6,27.4,42.7,61.3,42.7s61.3-19.1,61.3-42.7c0-1.6-0.1-3.1-0.4-4.6
		C137.2,83.9,141,78.5,141,72.2"/>
	<g>
		<path class="st1" d="M95,94.1c-6,0-10.9-4.9-10.9-10.9S89,72.2,95,72.2S106,77.2,106,83.2S101.1,94.1,95,94.1"/>
		<path class="st1" d="M97,112.1c-7.5,7.5-21.8,8-26,8s-18.5-0.6-26-8c-1.1-1.1-1.1-2.9,0-4c1.1-1.1,2.9-1.1,4,0
			c4.7,4.7,14.8,6.4,22,6.4c7.2,0,17.3-1.7,22-6.4c1.1-1.1,2.9-1.1,4,0C98.1,109.2,98.1,111,97,112.1"/>
		<path class="st1" d="M35.9,83.2c0-6,4.9-10.9,10.9-10.9s10.9,4.9,10.9,10.9c0,6-4.9,10.9-10.9,10.9C40.9,94.1,35.9,89.2,35.9,83.2
			"/>
	</g>
</g>
</svg>
