<?xml version="1.0" encoding="utf-8"?>
<!-- Generator: Adobe Illustrator 27.2.0, SVG Export Plug-In . SVG Version: 6.00 Build 0)  -->
<svg version="1.1" id="Layer_1" height="45" width="45"  xmlns="http://www.w3.org/2000/svg" xmlns:xlink="http://www.w3.org/1999/xlink" x="0px" y="0px"
	 viewBox="0 0 142 142" style="enable-background:new 0 0 142 142;" xml:space="preserve">
<style type="text/css">
	.st0{fill:#FF0000;}
	.st1{fill:#FFFFFF;}
</style>
<g>
	<path class="st0" d="M138.1,37.6c-1.6-6-6.3-10.7-12.3-12.3c-11-3-54.8-3-54.8-3s-43.8,0-54.8,2.9c-5.9,1.6-10.7,6.5-12.3,12.5
		C1,48.5,1,71.2,1,71.2s0,22.8,2.9,33.7c1.6,6,6.3,10.7,12.3,12.3c11.1,3,54.8,3,54.8,3s43.8,0,54.8-2.9c6-1.6,10.7-6.3,12.3-12.3
		c2.9-11,2.9-33.7,2.9-33.7S141.1,48.5,138.1,37.6z"/>
	<path class="st1" d="M57,92.2l36.4-21L57,50.3V92.2z"/>
</g>
</svg>
