<svg id="Layer_1" enable-background="new 0 0 256 256" height="105" viewBox="0 0 256 256" width="105" xmlns="http://www.w3.org/2000/svg"><g><g><path d="m241.19 119.97c0 48.1-29.99 89.19-72.31 105.59v-19.53c0-1.57-1.26-2.76-2.76-2.76h-76.23c-1.49 0-2.78 1.19-2.78 2.76v19.52c-42.31-16.4-72.3-57.48-72.3-105.58 0-62.52 50.67-113.2 113.19-113.2s113.19 50.68 113.19 113.2z" fill="#f0c020"/><path d="m146.742 153.343h-23.178c-2.743 0-4.95-2.208-4.95-4.95v-11.763-1.535c0-5.148-4.168-9.336-9.336-9.336-5.079 0-9.337 4.109-9.337 9.336v1.535 49.534h56.128v-23.495c0-5.227-4.248-9.326-9.327-9.326z" fill="#ffb69f"/><path d="m74.251 207.04c-2.02-1.251-4.025-2.595-5.962-3.992-1.119-.809-1.372-2.371-.563-3.49.808-1.121 2.37-1.372 3.49-.564 1.842 1.33 3.749 2.607 5.669 3.797 1.174.727 1.536 2.268.809 3.441-.728 1.174-2.269 1.535-3.443.808zm-13.959-10.4c-21.997-19.509-34.612-47.454-34.613-76.672 0-29.925 13.093-58.278 35.922-77.792 1.05-.896 2.627-.774 3.525.276.897 1.049.773 2.627-.276 3.524-21.715 18.563-34.17 45.532-34.17 73.992 0 27.788 12.003 54.371 32.93 72.932 1.033.916 1.128 2.496.212 3.529-.918 1.033-2.499 1.126-3.53.211z" fill="#f9e5af"/><path d="m178.297 206.242c-.728-1.174-.366-2.715.808-3.442 28.506-17.666 46.215-49.405 46.215-82.832 0-22.677-8.004-44.771-22.537-62.21-.884-1.061-.741-2.638.32-3.521 1.06-.884 2.637-.739 3.521.32 15.281 18.337 23.696 41.566 23.696 65.411 0 35.144-18.615 68.512-48.581 87.082-1.174.727-2.715.364-3.442-.808zm17.882-155.654c-1.612-1.585-3.304-3.137-5.03-4.611-1.049-.897-1.173-2.476-.276-3.524.897-1.051 2.476-1.173 3.525-.276 1.813 1.55 3.592 3.181 5.287 4.848.984.968.998 2.551.03 3.535-.962.976-2.547 1.002-3.536.028z" fill="#f9e5af"/><path d="m201.167 87.126v34.653c0 8.198-6.653 14.851-14.851 14.851h-67.702v-1.535c0-5.148-4.168-9.336-9.336-9.336-5.079 0-9.337 4.109-9.337 9.336v1.535h-30.257c-8.198 0-14.851-6.654-14.851-14.851v-34.653c0-8.198 6.653-14.851 14.851-14.851h116.632c8.198 0 14.851 6.653 14.851 14.851z" fill="#fc5d3d"/><path d="m186.316 130.131h-43.155c-1.381 0-2.5-1.119-2.5-2.5s1.119-2.5 2.5-2.5h43.155c1.848 0 3.351-1.504 3.351-3.352v-34.652c0-1.381 1.119-2.5 2.5-2.5s2.5 1.119 2.5 2.5v34.652c0 4.606-3.746 8.352-8.351 8.352zm-53.155 0h-7.136c-1.381 0-2.5-1.119-2.5-2.5s1.119-2.5 2.5-2.5h7.136c1.381 0 2.5 1.119 2.5 2.5s-1.119 2.5-2.5 2.5z" fill="#ffcbc2"/><path d="m69.684 130.131c-4.605 0-8.351-3.746-8.351-8.352v-34.652c0-1.381 1.119-2.5 2.5-2.5s2.5 1.119 2.5 2.5v34.652c0 1.848 1.503 3.352 3.351 3.352 1.381 0 2.5 1.119 2.5 2.5s-1.119 2.5-2.5 2.5z" fill="#ffcbc2"/><path d="m157.231 186.165h-58.474c-2.949 0-5.338 2.389-5.338 5.338v11.772h69.167v-11.772c0-2.949-2.405-5.338-5.355-5.338z" fill="#fff"/><path d="m166.12 203.27h-76.23c-1.49 0-2.78 1.19-2.78 2.76v19.52 23.68h81.77c0-3.982 0-38.458 0-43.2 0-1.57-1.26-2.76-2.76-2.76z" fill="#72c1e8"/><path d="m161.042 218.042h-52.072c-1.381 0-2.5-1.119-2.5-2.5s1.119-2.5 2.5-2.5h52.072c1.381 0 2.5 1.119 2.5 2.5s-1.12 2.5-2.5 2.5zm-62.073 0h-4c-1.381 0-2.5-1.119-2.5-2.5s1.119-2.5 2.5-2.5h4c1.381 0 2.5 1.119 2.5 2.5s-1.119 2.5-2.5 2.5z" fill="#c5e5ff"/><path d="m147.25 179.775h-25.25c-1.381 0-2.5-1.119-2.5-2.5s1.119-2.5 2.5-2.5h22.75v-10.25c0-1.381 1.119-2.5 2.5-2.5s2.5 1.119 2.5 2.5v12.75c0 1.381-1.119 2.5-2.5 2.5zm-35.25 0h-3.5c-1.381 0-2.5-1.119-2.5-2.5s1.119-2.5 2.5-2.5h3.5c1.381 0 2.5 1.119 2.5 2.5s-1.119 2.5-2.5 2.5z" fill="#fbe0e2"/><path d="m110.017 119.63c1.381 0 2.5-1.119 2.5-2.5v-16.544c0-6.236-5.074-11.311-11.311-11.311s-11.311 5.074-11.311 11.311v16.544c0 1.381 1.119 2.5 2.5 2.5s2.5-1.119 2.5-2.5v-7.175h12.621v7.175c.001 1.381 1.12 2.5 2.501 2.5zm-15.121-14.675v-4.369c0-3.479 2.831-6.311 6.311-6.311s6.311 2.831 6.311 6.311v4.369z"/><path d="m157.266 114.63h-11.282c-1.381 0-2.5 1.119-2.5 2.5s1.119 2.5 2.5 2.5h11.282c4.874 0 8.839-3.965 8.839-8.839s-3.965-8.839-8.839-8.839h-4.944c-2.117 0-3.838-1.722-3.838-3.838 0-2.117 1.722-3.839 3.838-3.839h11.283c1.381 0 2.5-1.119 2.5-2.5s-1.119-2.5-2.5-2.5h-11.283c-4.874 0-8.838 3.965-8.838 8.839 0 4.873 3.965 8.838 8.838 8.838h4.944c2.117 0 3.839 1.722 3.839 3.839s-1.723 3.839-3.839 3.839z"/><path d="m119.189 119.63h8.812c6.236 0 11.309-5.073 11.309-11.309v-7.737c0-6.235-5.073-11.309-11.309-11.309h-8.812c-1.381 0-2.5 1.119-2.5 2.5v25.354c0 1.382 1.12 2.501 2.5 2.501zm2.5-25.355h6.312c3.479 0 6.309 2.83 6.309 6.309v7.737c0 3.479-2.83 6.309-6.309 6.309h-6.312z"/><circle cx="54.83" cy="103.47" r="2.5"/><path d="m99.94 163.84c1.38 0 2.5-1.12 2.5-2.49 0-1.38-1.12-2.51-2.5-2.51s-2.5 1.13-2.5 2.51c0 1.37 1.12 2.49 2.5 2.49z"/><path d="m214.6 47.029c1.03-.909 1.13-2.489.23-3.52 0-.01-.01-.01-.01-.01-.88-1-2.53-1.101-3.53-.23-1.03.92-1.13 2.5-.22 3.53 0 .01.01.01.01.01.904 1.021 2.473 1.131 3.52.22z"/><path d="m12.31 119.97c0 48.282 29.584 89.974 72.3 107.256v21.999c0 1.381 1.119 2.5 2.5 2.5s2.5-1.119 2.5-2.5v-43.189c0-.176.163-.27.28-.27h76.23c.09 0 .26.057.26.27v43.189c0 1.381 1.119 2.5 2.5 2.5s2.5-1.119 2.5-2.5v-21.989c42.628-17.24 72.31-58.887 72.31-107.266 0-24.25-7.531-48.225-22.46-68.52-.79-1.07-2.42-1.33-3.49-.54-1.11.819-1.35 2.39-.53 3.5 14.05 19.1 21.48 41.77 21.48 65.56 0 44.851-26.295 84.435-67.31 101.868v-15.803c0-2.905-2.359-5.27-5.26-5.27h-1.034v-9.263c0-3.866-2.822-7.079-6.516-7.715v-21.117c0-6.51-5.31-11.811-11.83-11.83h-23.18c-1.36 0-2.44-1.08-2.45-2.45v-9.26h65.21c9.56 0 17.35-7.79 17.35-17.351v-34.649c0-9.57-7.79-17.351-17.35-17.351h-116.64c-9.56 0-17.35 7.78-17.35 17.351v6.34c0 1.38 1.13 2.5 2.5 2.5 1.38 0 2.5-1.12 2.5-2.5v-.01-6.33c.02-6.8 5.56-12.34 12.35-12.351h116.64c6.79.011 12.33 5.551 12.35 12.351v34.649c-.02 6.801-5.56 12.341-12.35 12.351h-65.24c-.501-6.138-5.704-10.87-11.8-10.87-6.132 0-11.301 4.751-11.8 10.87h-27.8c-6.79-.01-12.33-5.55-12.35-12.351v-8.31c0-1.38-1.12-2.5-2.5-2.5-1.37 0-2.5 1.12-2.5 2.5v8.31c0 9.561 7.79 17.351 17.35 17.351h27.76v12.21c0 1.38 1.12 2.5 2.5 2.5s2.5-1.12 2.5-2.5c0-6.265 0-9.817 0-16.24.01-3.77 3.07-6.84 6.84-6.84 3.746.008 6.83 3.059 6.83 6.84 0 0 .01.605.01 13.29 0 4.101 3.34 7.44 7.44 7.45h23.18c3.76.01 6.82 3.07 6.83 6.83v20.995h-51.13v-12.325c0-1.38-1.12-2.5-2.5-2.5s-2.5 1.12-2.5 2.5v12.445c-3.696.629-6.521 3.846-6.521 7.718v9.263h-1.029c-2.912 0-5.28 2.364-5.28 5.27v15.792c-41.005-17.434-67.3-57.017-67.3-101.858 0-61.199 49.514-110.7 110.69-110.7 28.53 0 55.63 10.83 76.29 30.49.97.92 2.61.88 3.54-.09.888-.927.965-2.52-.09-3.53-21.59-20.55-49.91-31.87-79.74-31.87-63.872 0-115.69 51.745-115.69 115.7zm83.609 71.533c0-1.564 1.273-2.838 2.838-2.838h58.474c1.574 0 2.854 1.273 2.854 2.838v9.263h-64.166z"/></g><path d="m104.831 40.569h-5.609c-1.32 0-2.537-1.087-2.537-2.537 0-1.358 1.056-2.506 2.566-2.536.003 0 .005-.001.008-.001.284 0 5.165-.003 5.447.006 1.201.038 2.356.702 3.058 1.798.746 1.162 2.278 1.479 3.438.733 1.162-.745 1.487-2.313.743-3.476-1.585-2.477-4.337-4.063-7.419-4.063v-2.387c0-1.381-1.119-2.5-2.5-2.5s0 0 0 0c-1.381 0-2.5 1.119-2.5 2.5v2.387c-4.798 0-7.842 3.612-7.842 7.537 0 4.156 3.381 7.537 7.537 7.537h5.609c1.397 0 2.537 1.135 2.537 2.537 0 1.322-1.014 2.506-2.574 2.537 0 0 0 0-.001 0h-5.854c-1.071-.007-2.181-.6-2.834-1.384-.881-1.057-2.457-1.207-3.522-.32-1.062.885-1.201 2.463-.32 3.521 1.713 2.056 4.194 3.183 6.658 3.183h.604v2.388c0 1.381 1.119 2.5 2.5 2.5s0 0 0 0c1.381 0 2.5-1.119 2.5-2.5v-2.388c4.799 0 7.842-3.603 7.842-7.537.002-4.156-3.382-7.535-7.535-7.535z"/><path d="m130.81 40.569h-5.609c-1.32 0-2.537-1.087-2.537-2.537 0-1.358 1.056-2.506 2.566-2.536.003 0 .005-.001.008-.001.284 0 5.165-.003 5.447.006 1.201.038 2.356.702 3.058 1.798.746 1.162 2.278 1.479 3.438.733 1.162-.745 1.487-2.313.743-3.476-1.585-2.477-4.337-4.063-7.419-4.063v-2.387c0-1.381-1.119-2.5-2.5-2.5s0 0 0 0c-1.381 0-2.5 1.119-2.5 2.5v2.387c-4.798 0-7.842 3.612-7.842 7.537 0 4.156 3.381 7.537 7.537 7.537h5.609c1.397 0 2.537 1.135 2.537 2.537 0 1.322-1.014 2.506-2.574 2.537 0 0 0 0-.001 0h-5.854c-1.071-.007-2.181-.6-2.834-1.384-.881-1.057-2.457-1.207-3.522-.32-1.062.885-1.201 2.463-.32 3.521 1.713 2.056 4.194 3.183 6.658 3.183h.604v2.388c0 1.381 1.119 2.5 2.5 2.5s0 0 0 0c1.381 0 2.5-1.119 2.5-2.5v-2.388c4.799 0 7.842-3.603 7.842-7.537.002-4.156-3.382-7.535-7.535-7.535z"/><path d="m156.789 40.569h-5.609c-1.32 0-2.537-1.087-2.537-2.537 0-1.358 1.056-2.506 2.566-2.536.003 0 .005-.001.008-.001.284 0 5.165-.003 5.447.006 1.201.038 2.356.702 3.058 1.798.746 1.162 2.278 1.479 3.438.733 1.162-.745 1.487-2.313.743-3.476-1.585-2.477-4.337-4.063-7.419-4.063v-2.387c0-1.381-1.119-2.5-2.5-2.5s0 0 0 0c-1.381 0-2.5 1.119-2.5 2.5v2.387c-4.798 0-7.842 3.612-7.842 7.537 0 4.156 3.381 7.537 7.537 7.537h5.609c1.397 0 2.537 1.135 2.537 2.537 0 1.322-1.014 2.506-2.574 2.537 0 0 0 0-.001 0h-5.854c-1.071-.007-2.181-.6-2.834-1.384-.881-1.057-2.457-1.207-3.522-.32-1.062.885-1.201 2.463-.32 3.521 1.713 2.056 4.194 3.183 6.658 3.183h.604v2.388c0 1.381 1.119 2.5 2.5 2.5s0 0 0 0c1.381 0 2.5-1.119 2.5-2.5v-2.388c4.799 0 7.842-3.603 7.842-7.537.002-4.156-3.381-7.535-7.535-7.535z"/></g></svg>