<svg id="Layer_1" enable-background="new 0 0 105 105" viewBox="0 0 105 105" xmlns="http://www.w3.org/2000/svg"><g><g><g><path d="m82.0333939 17.210083v59.6789169c0 4.9898758-4.0435257 9.0336227-9.0336227 9.0336227h-59.678917c-4.9900923 0-9.0422602-4.0437469-9.0422602-9.0336227v-59.6789169c0-4.9903078 4.0521679-9.0336199 9.0422602-9.0336199h59.6789169c4.9900971 0 9.0336228 4.0433121 9.0336228 9.0336199z" fill="#c3c9fb"/></g><g><path d="m82.0333939 70.7132187v6.1757813c0 4.9898758-4.0435257 9.0336227-9.0336227 9.0336227h-59.678917c-4.9900923 0-9.0422602-4.0437469-9.0422602-9.0336227v-59.678917c0-4.9903078 4.0521679-9.0336199 9.0422602-9.0336199h8.8746357c-5.7424622 7.5206728-9.1753235 17.0057564-9.1753235 27.3220558 0 24.428791 19.2529278 44.2306061 42.9915619 44.2306061 9.7771358.000001 18.8016796-3.3533697 26.0216656-9.0159063z" fill="#8693e2"/></g><g><path d="m12.9536343 81.4986954c-2.3381138 0-4.2511148-1.913002-4.2511148-4.2511139v-49.7872982c0-2.3430538 1.8994198-4.2424755 4.2424746-4.2424755h60.4220047c2.3430557 0 4.2424698 1.8994217 4.2424698 4.2424755v49.7959442c0 2.3430481-1.8994141 4.2424698-4.2424698 4.2424698h-60.4133645z" fill="#fff"/></g><g><path d="m77.6094666 56.4503822v20.8101616c0 2.3359528-1.9021988 4.2381516-4.2381516 4.2381516h-60.4220009c-2.3357372 0-4.2467947-1.9112701-4.2467947-4.2472229v-24.2339516c6.1049299 11.6434746 19.6951056 20.6153145 35.4886046 20.6153145 14.20084 0 26.6232605-7.2554093 33.4183426-17.1824532z" fill="#ddd"/></g><g><path d="m72.9997482 86.6727295h-59.678709c-5.3994141 0-9.7924805-4.388916-9.7924805-9.7836914v-59.6789551c0-5.3947754 4.3930664-9.7836914 9.7924805-9.7836914h59.6787109c5.3945313 0 9.7836914 4.388916 9.7836914 9.7836914v59.6789551c-.0000019 5.3947754-4.389162 9.7836914-9.7836933 9.7836914zm-59.678709-77.7463379c-4.5722656 0-8.2924805 3.7160645-8.2924805 8.2836914v59.6789551c0 4.567627 3.7202148 8.2836914 8.2924805 8.2836914h59.6787109c4.5678711 0 8.2836914-3.7160645 8.2836914-8.2836914v-59.6789551c0-4.567627-3.7158203-8.2836914-8.2836914-8.2836914z" fill="#0f0f0f"/></g><g><path d="m73.3669357 82.2486572h-60.413084c-2.7578125 0-5.0014648-2.2434082-5.0014648-5.0009766v-49.7873535c0-2.7529297 2.2397461-4.9924316 4.9926758-4.9924316h60.421875c2.7529297 0 4.9926758 2.239502 4.9926758 4.9924316v49.7958984c-.000002 2.7529298-2.2397481 4.9924317-4.9926778 4.9924317zm-60.4218731-58.2807617c-1.9257813 0-3.4926758 1.5666504-3.4926758 3.4924316v49.7873535c0 1.9304199 1.5708008 3.5009766 3.5014648 3.5009766h60.4130859c1.9257813 0 3.4926758-1.5666504 3.4926758-3.4924316v-49.7958985c0-1.9257813-1.5668945-3.4924316-3.4926758-3.4924316z" fill="#0f0f0f"/></g><g><g><g><circle cx="14.704" cy="15.237" fill="#ffd9b0" r="2.365"/></g><g><path d="m14.7038517 18.3519287c-1.7172852 0-3.1147461-1.3974609-3.1147461-3.1149902s1.3974609-3.1147461 3.1147461-3.1147461 3.1147461 1.3972168 3.1147461 3.1147461-1.3974609 3.1149902-3.1147461 3.1149902zm0-4.7297363c-.8901367 0-1.6147461.7243652-1.6147461 1.6147461 0 .890625.7246094 1.6149902 1.6147461 1.6149902s1.6147461-.7243652 1.6147461-1.6149902c0-.8903809-.7246094-1.6147461-1.6147461-1.6147461z" fill="#0f0f0f"/></g></g><g><circle cx="21.906" cy="15.237" fill="#ff84a0" r="2.365"/><path d="m21.9055119 18.3519287c-1.7172852 0-3.1147461-1.3974609-3.1147461-3.1149902s1.3974609-3.1147461 3.1147461-3.1147461 3.1147461 1.3972168 3.1147461 3.1147461-1.397461 3.1149902-3.1147461 3.1149902zm0-4.7297363c-.8901367 0-1.6147461.7243652-1.6147461 1.6147461 0 .890625.7246094 1.6149902 1.6147461 1.6149902s1.6147461-.7243652 1.6147461-1.6149902c-.0000001-.8903809-.7246094-1.6147461-1.6147461-1.6147461z" fill="#0f0f0f"/></g><g><g><circle cx="29.108" cy="15.237" fill="#abecef" r="2.365"/></g><g><path d="m29.1076603 18.3519287c-1.7172852 0-3.1147461-1.3974609-3.1147461-3.1149902s1.3974609-3.1147461 3.1147461-3.1147461 3.1147442 1.3972168 3.1147442 3.1147461-1.3974591 3.1149902-3.1147442 3.1149902zm0-4.7297363c-.8901367 0-1.6147461.7243652-1.6147461 1.6147461 0 .890625.7246094 1.6149902 1.6147461 1.6149902s1.6147461-.7243652 1.6147461-1.6149902c0-.8903809-.7246094-1.6147461-1.6147461-1.6147461z" fill="#0f0f0f"/></g></g></g><g><path d="m72.5041428 15.9869385h-29.3481446c-.4140625 0-.75-.3356934-.75-.75s.3359375-.75.75-.75h29.3481445c.4140625 0 .75.3356934.75.75s-.3359374.75-.7499999.75z" fill="#0f0f0f"/></g><g><path d="m28.8942814 4.9737549h-2.1513672c-.4140625 0-.75-.3356934-.75-.75s.3359375-.75.75-.75h2.1513672c.4140625 0 .75.3356934.75.75s-.3359375.75-.75.75z" fill="#0f0f0f"/></g><g><path d="m51.7380295 4.9737549h-18.0249024c-.4140625 0-.75-.3356934-.75-.75s.3359375-.75.75-.75h18.0249023c.4140625 0 .75.3356934.75.75s-.3359374.75-.7499999.75z" fill="#0f0f0f"/></g><g><g><path d="m96.1141968 8.1538563c0 2.1768255-1.7607422 3.9375668-3.9300995 3.9375668-2.1767044 0-3.9374466-1.7607412-3.9374466-3.9375668 0-2.169239 1.7607422-3.9299803 3.9374466-3.9299803 2.1693573 0 3.9300995 1.7607412 3.9300995 3.9299803z" fill="#aff2b6"/></g><g><path d="m96.1145477 8.1525726c0 2.1737909-1.764946 3.9388504-3.9294891 3.9388504-1.7000732 0-3.1585312-1.0869541-3.7066193-2.601079.5945435.3622789 1.3005447.5758648 2.0529938.5758648 2.17379 0 3.9388809-1.7650595 3.9388809-3.9388509 0-.455183-.0742569-.9010286-.2229233-1.3098764 1.1147004.6875596 1.867157 1.9229732 1.867157 3.3350911z" fill="#7fd685"/></g><g><path d="m92.1843185 12.8414307c-2.5844727 0-4.6875-2.1027832-4.6875-4.6875 0-2.5805664 2.1030273-4.6801758 4.6875-4.6801758 2.5805664 0 4.6796875 2.0996094 4.6796875 4.6801758 0 2.5847168-2.0991211 4.6875-4.6796875 4.6875zm0-7.8676758c-1.7578125 0-3.1875 1.4265137-3.1875 3.1801758 0 1.7575684 1.4296875 3.1875 3.1875 3.1875 1.753418 0 3.1796875-1.4299316 3.1796875-3.1875 0-1.7536621-1.4262695-3.1801758-3.1796875-3.1801758z" fill="#0f0f0f"/></g></g><g><g><path d="m14.0745907 94.5664749c-2.3970289.4937592-4.282548 2.3851624-4.7763062 4.7822952-.0296822.142746-.220068.142746-.2497492 0-.2438459-1.2015228-.8387003-2.2721786-1.6774011-3.1048965-.8267303-.8327103-1.8973875-1.4334717-3.0989046-1.6773987-.1427488-.0296783-.1427488-.2200699 0-.2497482 1.2015171-.2438431 2.2721744-.8446045 3.1048894-1.6773987.832716-.832634 1.4275703-1.9033737 1.6714163-3.1048126.0296812-.142746.220067-.142746.2497492 0 .243927 1.2014389.8387003 2.2721786 1.6714163 3.1048126.832715.8327942 1.9033728 1.4335556 3.1048899 1.6773987.1427488.0296783.1427488.2200699 0 .2497482z" fill="#dabcbc"/></g><g><path d="m14.0770168 94.5634003c-2.4021444.4933548-4.2865114 2.3858871-4.7799454 4.7879562-.0322695.1374893-.2182884.1374893-.25072 0-.2344646-1.1484604-.7763443-2.1756058-1.5527687-2.9843826 1.8601837-.3396835 3.2755413-1.9248886 3.3564186-3.8659515.0323515.0485306.0808783.0970535.1213169.1374969.8330383.8330383 1.9006224 1.4315338 3.1056986 1.6741638.1374913.0323486.1374913.2264557 0 .2507172z" fill="#bc9595"/></g><g><path d="m9.1735783 100.2059326c-.4194336 0-.7729492-.2893066-.859375-.7041016-.2099609-1.0371094-.71875-1.9782715-1.4711914-2.7258301-.7524414-.7570801-1.6914063-1.265625-2.7202148-1.4743652-.418457-.0876465-.7080078-.4411621-.7075195-.8608398.0004883-.4194336.2900391-.7724609.7045898-.8583984 1.0297852-.2089844 1.9716797-.7182617 2.7270508-1.4736328.7504883-.7502441 1.2573242-1.6918945 1.4667969-2.7233887.0869141-.4187012.4404297-.7080078.8598633-.7080078h.0014648c.4199219.0007324.7724609.2912598.8579102.706543.2099609 1.0334473.7167969 1.9753418 1.4667969 2.7250977.7553711.7548828 1.6972656 1.2644043 2.7241211 1.4726563.4174805.0864258.7075195.4394531.7080078.8591309 0 .4199219-.2895508.7736816-.7045898.8601074-.0004883 0-.0009766 0-.0014648.0002441-2.1113281.4348145-3.7568359 2.0830078-4.1933594 4.1989746-.0849612.4150389-.4262698.6816405-.8588869.7058104zm-.6098633-1.0095215c0 .0004883 0 .0009766-.0004883.001709.0004883-.0007324.0004883-.0012207.0004883-.001709zm-2.3994141-4.7548828c.6367188.326416 1.2236328.7548828 1.7392578 1.2736816.5166016.5134277.9443359 1.0998535 1.2705078 1.7387695.6601563-1.296875 1.7143555-2.3520508 3.0087891-3.012207-.637207-.3261719-1.2250977-.7539063-1.7436523-1.2719727-.5151367-.5151367-.9404297-1.1010742-1.265625-1.7380371-.3251953.6362305-.7509766 1.2226563-1.2661133 1.737793-.5180664.5180665-1.1059571.9458008-1.7431641 1.2719727zm7.9101563.125h.0097656z" fill="#0f0f0f"/></g></g><g><path d="m49.2072678 76.463501h-34.4995099c-.4140625 0-.75-.3356934-.75-.75s.3359375-.75.75-.75h34.4995117c.4140625 0 .75.3356934.75.75s-.3359393.75-.7500018.75z" fill="#0f0f0f"/></g><g><path d="m56.5832443 71.2454834h-41.8754864c-.4140625 0-.75-.3356934-.75-.75s.3359375-.75.75-.75h41.8754883c.4140625 0 .75.3356934.75.75s-.3359394.75-.7500019.75z" fill="#0f0f0f"/></g><g><g><path d="m71.602623 51.5709381v10.6170158c0 1.108223-.8983612 2.0162697-2.0164948 2.0162697h-10.273117c-1.1180229 0-2.0258331-.9080467-2.0258331-2.0162697v-10.6170158c0-1.1184883.9078102-2.0167313 2.0258331-2.0167313h10.2731171c1.1181335 0 2.0164947.898243 2.0164947 2.0167313z" fill="#dabcbc"/></g><g><path d="m50.3109703 51.5709381v10.6170158c0 1.108223-.8982468 2.0162697-2.0163841 2.0162697h-10.2731171c-1.1181412 0-2.0259514-.9080467-2.0259514-2.0162697v-10.6170158c0-1.1184883.9078102-2.0167313 2.0259514-2.0167313h10.2731171c1.1181373 0 2.0163841.898243 2.0163841 2.0167313z" fill="#ffd9b0"/></g><g><path d="m71.602623 31.0247078v11.3720055c0 1.108223-.8983612 2.0162697-2.0164948 2.0162697h-52.8563175c-1.1181393 0-2.0259495-.9080467-2.0259495-2.0162697v-11.3720055c0-1.1184902.9078102-2.0167351 2.0259495-2.0167351h52.8563156c1.1181355 0 2.0164967.8982449 2.0164967 2.0167351z" fill="#abecef"/></g><g><path d="m71.602623 37.6661148v4.7305984c0 1.108223-.8983612 2.0162697-2.0164948 2.0162697h-52.8563175c-1.1181393 0-2.0259495-.9080467-2.0259495-2.0162697v-11.3720054c0-1.1184902.9078102-2.0167351 2.0259495-2.0167351h4.0041866c-1.5863934.8982449-2.4656219 1.8921471-2.4656219 2.9243107 0 4.1855869 14.4396858 7.5877171 32.2528038 7.5877171 8.0559692 0 15.4240265-.6975975 21.0814438-1.8538857z" fill="#75c5c9"/></g><g><path d="m29.01931 51.5709381v10.6170158c0 1.108223-.8982449 2.0162697-2.0163841 2.0162697h-10.2731152c-1.1181393 0-2.0259495-.9080467-2.0259495-2.0162697v-10.6170158c0-1.1184883.9078102-2.0167313 2.0259495-2.0167313h10.2731152c1.1181392 0 2.0163841.898243 2.0163841 2.0167313z" fill="#ff84a0"/></g><g><path d="m29.01931 59.5118866v2.6760674c0 1.108223-.8982449 2.0162697-2.0163841 2.0162697h-10.2731152c-1.1181393 0-2.0259495-.9080467-2.0259495-2.0162697v-10.6170159c0-1.1184883.9078102-2.0167313 2.0259495-2.0167313h1.9781208c-1.2709579 1.1278191-2.0353985 2.5897408-2.0353985 4.1762505 0 3.5645142 3.8321209 6.4505615 8.5624847 6.4505615 1.3569337 0 2.6471387-.2389106 3.7842923-.6691322z" fill="#f76189"/></g><g><path d="m50.3109703 59.5118866v2.6760674c0 1.108223-.8982468 2.0162697-2.0163841 2.0162697h-10.2731171c-1.1181412 0-2.0259514-.9080467-2.0259514-2.0162697v-10.6170159c0-1.1184883.9078102-2.0167313 2.0259514-2.0167313h1.9781189c-1.2709541 1.1278191-2.0353966 2.5897408-2.0353966 4.1762505 0 3.5645142 3.832119 6.4505615 8.5624847 6.4505615 1.3569337 0 2.6471368-.2389106 3.7842942-.6691322z" fill="#edb57e"/></g><g><path d="m71.602623 59.5118866v2.6760674c0 1.108223-.8982391 2.0162697-2.0163803 2.0162697h-10.2731171c-1.1181374 0-2.0259476-.9080467-2.0259476-2.0162697v-10.6170159c0-1.1184883.9078102-2.0167313 2.0259476-2.0167313h1.9781227c-1.2709579 1.1278191-2.0354004 2.5897408-2.0354004 4.1762505 0 3.5645142 3.8321228 6.4505615 8.5624886 6.4505615 1.3569336 0 2.6471329-.2389106 3.7842865-.6691322z" fill="#bc9595"/></g></g><g><g><path d="m69.586174 64.9542236h-10.2729492c-1.5307617 0-2.7758789-1.2409668-2.7758789-2.7663574v-10.6169433c0-1.5253906 1.2451172-2.7666016 2.7758789-2.7666016h10.2729492c1.5253906 0 2.7666016 1.2412109 2.7666016 2.7666016v10.6169434c0 1.5253905-1.241211 2.7663573-2.7666016 2.7663573zm-10.2729492-14.6499023c-.7036133 0-1.2758789.5681152-1.2758789 1.2666016v10.6169434c0 .6982422.5722656 1.2663574 1.2758789 1.2663574h10.2729492c.6982422 0 1.2666016-.5681152 1.2666016-1.2663574v-10.6169434c0-.6984863-.5683594-1.2666016-1.2666016-1.2666016z" fill="#0f0f0f"/></g><g><path d="m48.2946701 64.9542236h-10.2734375c-1.5307617 0-2.7758789-1.2409668-2.7758789-2.7663574v-10.6169433c0-1.5253906 1.2451172-2.7666016 2.7758789-2.7666016h10.2734375c1.5253906 0 2.7661133 1.2412109 2.7661133 2.7666016v10.6169434c0 1.5253905-1.2407227 2.7663573-2.7661133 2.7663573zm-10.2734375-14.6499023c-.7036133 0-1.2758789.5681152-1.2758789 1.2666016v10.6169434c0 .6982422.5722656 1.2663574 1.2758789 1.2663574h10.2734375c.6982422 0 1.2661133-.5681152 1.2661133-1.2663574v-10.6169434c0-.6984863-.5678711-1.2666016-1.2661133-1.2666016z" fill="#0f0f0f"/></g><g><path d="m69.586174 45.1629639h-52.8564434c-1.5307617 0-2.7758789-1.2409668-2.7758789-2.7663574v-11.3718262c0-1.5256348 1.2451172-2.7668457 2.7758789-2.7668457h52.8564434c1.5253906 0 2.7666016 1.2412109 2.7666016 2.7668457v11.3718262c0 1.5253906-1.241211 2.7663574-2.7666016 2.7663574zm-52.8564434-15.4050293c-.7036133 0-1.2758789.5683594-1.2758789 1.2668457v11.3718262c0 .6982422.5722656 1.2663574 1.2758789 1.2663574h52.8564434c.6982422 0 1.2666016-.5681152 1.2666016-1.2663574v-11.3718262c0-.6984863-.5683594-1.2668457-1.2666016-1.2668457z" fill="#0f0f0f"/></g><g><path d="m27.0031681 64.9542236h-10.2734375c-1.5307617 0-2.7758789-1.2409668-2.7758789-2.7663574v-10.6169433c0-1.5253906 1.2451172-2.7666016 2.7758789-2.7666016h10.2734375c1.5253906 0 2.7661133 1.2412109 2.7661133 2.7666016v10.6169434c0 1.5253905-1.2407227 2.7663573-2.7661133 2.7663573zm-10.2734375-14.6499023c-.7036133 0-1.2758789.5681152-1.2758789 1.2666016v10.6169434c0 .6982422.5722656 1.2663574 1.2758789 1.2663574h10.2734375c.6982422 0 1.2661133-.5681152 1.2661133-1.2663574v-10.6169434c0-.6984863-.5678711-1.2666016-1.2661133-1.2666016z" fill="#0f0f0f"/></g></g><g><g><g><g><g><g><g><path d="m73.9123001 83.6877213-8.3780441 4.4570999 14.2492447 11.8716507c1.1226578.9397736 2.7147369 1.0066452 3.9230499.1700363 1.359108-.9567337 1.7283783-2.7491074.9784088-4.1588364-.1130524-.2125015-.2643356-.4236526-.4229126-.6119232z" fill="#aff2b6"/></g><g><path d="m83.6425552 100.220459c-1.1965332.8039703-2.7571716.7183533-3.8592606-.199707l-14.2503661-11.8755265 8.3774414-4.4548264 3.2524261 3.6868744-2.6568298 1.4146271c-1.3347702.710701-1.5239944 2.5473862-.3621597 3.5152893z" fill="#7fd685"/></g><g><path d="m81.8469162 101.5262451c-.9052734 0-1.8032227-.3139648-2.5449219-.9345703l-14.2475586-11.8706055c-.1918945-.1599121-.2915039-.4047852-.2661133-.6530762.0258789-.2485352.1733398-.4680176.394043-.5852051l8.3779297-4.4572754c.3066406-.1635742.6845703-.0942383.9145508.1657715l10.3496094 11.7280273c.2216797.2629395.3935547.5131836.5229492.7568359.9423828 1.7717285.4228516 3.9748535-1.2089844 5.1235352-.7021484.4860841-1.4995117.7265626-2.2915039.7265626zm-14.9750977-13.2434082 13.3916016 11.1574707c.8681641.7270508 2.0795898.7780762 3.0166016.1293945 1.0097656-.7109375 1.3310547-2.0834961.7426758-3.1896973-.0791016-.1489258-.1943359-.3149414-.3344727-.4812012l-9.9462891-11.2709961z" fill="#0f0f0f"/></g><g><path d="m100.2274399 84.7325592.0010071.0087357c-.0176926.0020523-.0356064.0041199-.0524597.0153656.0168533-.0112458.0347671-.0133133.0514526-.0241013z" fill="#22a7f0"/></g><g><ellipse cx="91.456" cy="68.244" fill="#ffd9b0" rx="3.757" ry="18.679" transform="matrix(.883 -.47 .47 .883 -21.337 50.95)"/></g><g><path d="m100.4769745 84.5005188c-.0684891.1030579-.1503143.1845093-.2521439.2344437-1.8244171.9721298-7.2409668-5.6231766-12.0881729-14.7240829-4.8451157-9.1093063-7.2852783-17.2814293-5.4502182-18.2604904.4944534-.2613907 1.2561417.026844 2.2036743.7835579-1.3043518 1.6509972 1.125351 9.4217911 5.7023544 18.0260506 3.5298997 6.6274184 7.3643189 11.9335478 9.8845063 13.9405211z" fill="#edb57e"/></g><g><path d="m82.6789398 51.7605782c-.1148224.1040382-.2288513.2168388-.3337097.3285751.0917587-.1465302.1968308-.2582932.3337097-.3285751z" fill="#fe5722"/></g><g><circle cx="88.139" cy="70.008" fill="#fff" r="5.582"/></g><g><path d="m90.7621155 74.9364471c-2.3748169 1.2627258-5.2491684.6342239-6.9023361-1.3512192 1.4518356.5578384 3.1315231.4995956 4.6091919-.2875137 2.7250366-1.4484329 3.7575531-4.8321609 2.3101273-7.5484619-.1844482-.3412857-.3937531-.6619949-.6446533-.9499969 1.2136383.4583054 2.2687988 1.3515472 2.928894 2.59021 1.4474181 2.7162933.4148559 6.0995864-2.3012238 7.5469817z" fill="#ddd"/></g><g><path d="m100.176506 85.5067139c-.2402344 0-.4765625-.1154785-.621582-.329834-.0869141-.1286621-.1289063-.2746582-.1289063-.4189453 0-.2409668.1152344-.4772949.3295898-.6225586.0004883 0 .0009766-.0002441.0009766-.0004883.0043945-.0029297.0092773-.0061035.0136719-.0090332.0361328-.0224609.0830078-.0471191.125-.0656738.2036133-.1005859.4448242-.1037598.6533203-.0053711.2348633.1115723.3955078.3366699.4243164.5949707l.0009766.0087891c.0415039.3759766-.2026367.7180176-.5585938.8093262-.0781249.026123-.1586913.0388183-.2387695.0388183z" fill="#0f0f0f"/></g><g><path d="m99.8317795 85.5794678c-1.2446289 0-2.9238281-1.3041992-5.0976563-3.9519043-2.3139648-2.8186035-4.8911133-6.8200684-7.2568359-11.2670898-2.3662109-4.4472656-4.2441406-8.8208008-5.2885742-12.3146973-1.1933594-3.9938965-1.1469727-6.2685547.1425781-6.9545898 3.1445313-1.6757813 9.9482422 9.1030273 13.1040039 15.0354004 2.3662109 4.4472656 4.2441406 8.8208008 5.2880859 12.3146973 1.1938477 3.9938965 1.1469727 6.2685547-.1425781 6.9545898-.2294922.1223144-.4790039.1835937-.7490234.1835937zm-16.6704102-33.1916504c-.0493164 0-.0913086.0092773-.1259766.0275879-.175293.0935059-.590332 1.25.5908203 5.2006836 1.0166016 3.4016113 2.8544922 7.6774902 5.175293 12.0397949 2.3203125 4.3620605 4.8393555 8.2756348 7.0922852 11.0200195 2.965332 3.6125488 3.9780273 3.4001465 3.9824219 3.395752.1757813-.0935059.5908203-1.25-.5898438-5.2006836-1.0166016-3.4018555-2.8544922-7.6777344-5.175293-12.0397949-5.3134765-9.9873047-9.8676757-14.4433594-10.949707-14.4433594z" fill="#0f0f0f"/></g><g><path d="m88.1496506 76.3394775c-2.2675781 0-4.4633789-1.2197266-5.6005859-3.3571777-.7944336-1.4931641-.9599609-3.2062988-.4658203-4.8239746s1.5883789-2.9460449 3.0820313-3.7404785c3.0820313-1.6396484 6.9243164-.4660645 8.5639648 2.6162109.7944336 1.4931641.9599609 3.206543.4658203 4.8242188-.4941406 1.6174316-1.5883789 2.9458008-3.0820313 3.7402344-.9448242.5026855-1.9609375.7409667-2.9633789.7409667zm-.0166016-11.1657714c-.7807617 0-1.5546875.1914063-2.2636719.5683594-1.1391602.6062012-1.9746094 1.619873-2.3515625 2.8544922-.3769531 1.234375-.2509766 2.541748.3554688 3.6811523.605957 1.1394043 1.6196289 1.9746094 2.8540039 2.3518066 1.2358398.3769531 2.5424805.2507324 3.6816406-.3552246 1.1391602-.6062012 1.9746094-1.619873 2.3515625-2.854248s.2509766-2.541748-.3554688-3.6813965c-.605957-1.1394043-1.6196289-1.9746094-2.8540039-2.3518066-.4667968-.1423341-.9438476-.2131348-1.4179687-.2131348z" fill="#0f0f0f"/></g><g><path d="m99.821022 84.8246994c-6.0461197 1.2700424-12.6567611 1.1092987-19.9257583-.8246994l-7.9704819-14.983017c2.4555511-7.075592 6.0128784-12.6191254 10.4204483-16.9278297-1.1179581 1.8612595 1.3053207 9.488163 5.7978439 17.9181023 4.5279465 8.4988937 9.5372086 14.8112106 11.677948 14.8174438z" fill="#aff2b6"/></g><g><path d="m99.8229065 84.8264084c-6.0494919 1.2713776-12.6595154 1.110054-19.9263229-.8237915l-7.9715805-14.9832993c.5537643-1.5834198 1.1564178-3.1009369 1.8213654-4.5322647.5482941 6.278595 6.0148544 12.0405579 13.6675034 13.7516785 2.0492172.4582062 4.0817719.5855103 6.0166016.4192047 2.6916502 3.7977753 5.0767363 6.1651077 6.392433 6.1684723z" fill="#7fd685"/></g><g><path d="m91.8644943 86.3865967c-3.9335938 0-8-.5544434-12.1621094-1.6616211-.2011719-.0537109-.371582-.1887207-.4692383-.3725586l-7.9707031-14.9831543c-.0981445-.1843262-.1147461-.401123-.0463867-.5981445 2.3876953-6.8803711 5.9560547-12.673584 10.6049805-17.2182617.2705078-.263916.6938477-.2854004.9892578-.052002.2963867.2338867.3725586.6513672.1782227.9746094-.7416992 1.2346191.8666992 7.8913574 5.8168945 17.1789551 5.0092773 9.402832 9.6171875 14.4162598 11.0175781 14.420166.3837891.0009766.7050781.291748.7441406.673584s-.2163086.7314453-.5917969.8103027c-2.6279296.5522461-5.3364257.828125-8.1108398.828125zm-11.4614258-3.0285645c5.9584961 1.5458984 11.7016602 1.9196777 17.1103516 1.1179199-3.0029297-2.4174805-7.0058594-8.4360352-10.0322266-14.1162109-3.0083008-5.6450195-5.7739258-12.329834-6.1098633-16.1818848-3.6914063 4.0522461-6.5893555 9.0119629-8.6303711 14.7770996z" fill="#0f0f0f"/></g><g><path d="m71.9229355 69.0197601 7.9700394 14.9813309-11.5180435 5.8367081c-4.1244202 2.1941833-9.2586212.6260757-11.4608803-3.5135193-1.0969925-2.062027-1.2634201-4.3863754-.6317329-6.4542007.6468925-2.0749588 2.060173-3.91642 4.1225662-5.0136108z" fill="#ffd9b0"/></g><g><path d="m79.8965836 84.0026169-11.5182571 5.8321762c-4.1325302 2.1991882-9.2644196.6247787-11.4636536-3.5075455-1.100563-2.0619354-1.2618523-4.3860016-.6345139-6.4610214.2923698-.9427414.7473221-1.8393784 1.3545799-2.6478806.8940239 3.5953217 4.4523811 6.8061981 9.2255211 7.8734665 4.8596954 1.0866241 9.5353012-.3740234 11.827446-3.3566742z" fill="#edb57e"/></g><g><path d="m64.4191818 91.5826416c-.9077148 0-1.8212891-.135498-2.7148438-.4091797-2.3574219-.7219238-4.2939453-2.3188477-5.4526367-4.4968262-1.1606445-2.1818848-1.4042969-4.677002-.6865234-7.0258789.7402344-2.3740234 2.3334961-4.3105469 4.487793-5.4562988l11.53125-5.84375c.3618164-.1850586.809082-.0439453 1.0009766.3166504l7.9697266 14.9814453c.0947266.1779785.1137695.3864746.0527344.5786133-.0605469.1921387-.1962891.3515625-.3759766.442627l-11.5180664 5.8366699c-1.3398438.7131347-2.8090821 1.0759277-4.2944337 1.0759277zm7.1870117-21.5615234-10.8623047 5.5043945c-1.7900391.9523926-3.1245117 2.5769043-3.7456055 4.567627-.5991211 1.9616699-.3945313 4.0510254.5776367 5.8789063.9707031 1.824707 2.5927734 3.1625977 4.5673828 3.7670898 1.9741211.6047363 4.0610352.4038086 5.8789063-.5634766l10.8491211-5.4978027z" fill="#0f0f0f"/></g><g><g><path d="m62.230217 81.1920166c-.2709961 0-.5327148-.1477051-.6665039-.4050293-.1904297-.3676758-.046875-.8203125.3208008-1.0109863l8.1357422-4.21875c.3671875-.1904297.8198242-.0473633 1.0112305.3205566.1904297.3676758.046875.8203125-.3208008 1.0109863l-8.1357422 4.21875c-.1103516.057129-.2285157.0844727-.3447266.0844727z" fill="#0f0f0f"/></g><g><path d="m64.8781662 86.0828857c-.2709961 0-.5327148-.1477051-.6665039-.4050293-.1904297-.3676758-.046875-.8203125.3208008-1.0109863l8.1357422-4.2185059c.3662109-.1916504.8203125-.0473633 1.0112305.3205566.1904297.3676758.046875.8203125-.3208008 1.0109863l-8.1357422 4.2185059c-.1103516.0573731-.2285157.0844727-.3447266.0844727z" fill="#0f0f0f"/></g></g></g></g></g></g></g></g></g><g><path d="m85.8737717 24.00354c-.4140625 0-.75-.3356934-.75-.75v-2.1516113c0-.4143066.3359375-.75.75-.75s.75.3356934.75.75v2.1516113c0 .4143067-.3359375.75-.75.75z" fill="#0f0f0f"/></g><g><path d="m85.8737717 41.3153076c-.4140625 0-.75-.3356934-.75-.75v-14.125c0-.4143066.3359375-.75.75-.75s.75.3356934.75.75v14.125c0 .4143067-.3359375.75-.75.75z" fill="#0f0f0f"/></g></g></svg>